<svg width="220" height="220" viewBox="0 0 220 220" fill="none" xmlns="http://www.w3.org/2000/svg">
<mask id="path-1-inside-1_64_19" fill="white">
<path d="M217.929 110C219.073 110 220.002 110.928 219.981 112.072C219.486 138.34 209.603 163.591 192.082 183.23C174.561 202.868 150.597 215.557 124.555 219.033C123.421 219.184 122.393 218.366 122.263 217.23C122.133 216.093 122.95 215.069 124.084 214.916C149.115 211.557 172.147 199.352 188.991 180.472C205.834 161.592 215.343 137.322 215.837 112.072C215.86 110.928 216.785 110 217.929 110Z"/>
</mask>
<path d="M217.929 110C219.073 110 220.002 110.928 219.981 112.072C219.486 138.34 209.603 163.591 192.082 183.23C174.561 202.868 150.597 215.557 124.555 219.033C123.421 219.184 122.393 218.366 122.263 217.23C122.133 216.093 122.95 215.069 124.084 214.916C149.115 211.557 172.147 199.352 188.991 180.472C205.834 161.592 215.343 137.322 215.837 112.072C215.86 110.928 216.785 110 217.929 110Z" stroke="#5956E9" stroke-width="8" mask="url(#path-1-inside-1_64_19)"/>
<mask id="path-2-inside-2_64_19" fill="white">
<path d="M110 2.07128C110 0.927348 110.928 -0.00203427 112.072 0.0194806C138.34 0.513849 163.591 10.3974 183.23 27.9182C202.868 45.4389 215.557 69.4035 219.033 95.4454C219.184 96.5792 218.366 97.6067 217.23 97.7367C216.093 97.8667 215.069 97.05 214.916 95.9162C211.557 70.885 199.352 47.853 180.472 31.0093C161.592 14.1657 137.322 4.65664 112.072 4.16282C110.928 4.14045 110 3.21522 110 2.07128Z"/>
</mask>
<path d="M110 2.07128C110 0.927348 110.928 -0.00203427 112.072 0.0194806C138.34 0.513849 163.591 10.3974 183.23 27.9182C202.868 45.4389 215.557 69.4035 219.033 95.4454C219.184 96.5792 218.366 97.6067 217.23 97.7367C216.093 97.8667 215.069 97.05 214.916 95.9162C211.557 70.885 199.352 47.853 180.472 31.0093C161.592 14.1657 137.322 4.65664 112.072 4.16282C110.928 4.14045 110 3.21522 110 2.07128Z" stroke="#5956E9" stroke-width="8" mask="url(#path-2-inside-2_64_19)"/>
<path d="M2.01914 107.966C2.50452 82.1755 12.2084 57.3835 29.4106 38.1019C46.6128 18.8202 70.1416 6.36222 95.71 2.94955C95.7146 2.94894 95.7167 2.94911 95.7168 2.94912L95.7175 2.94923C95.7182 2.94943 95.7222 2.95076 95.7279 2.95528C95.7337 2.95987 95.7387 2.96568 95.7421 2.97176C95.7448 2.97662 95.7481 2.98402 95.7496 2.99751C95.7511 3.01061 95.7498 3.01862 95.7479 3.02519C95.7455 3.03324 95.7405 3.04426 95.731 3.05625C95.7118 3.08054 95.6851 3.09671 95.6502 3.10139C70.146 6.52461 46.6788 18.9603 29.517 38.1968C12.3551 57.4332 2.66636 82.1614 2.16322 107.889C2.16253 107.925 2.14951 107.953 2.12756 107.975C2.11671 107.986 2.10633 107.992 2.09861 107.995C2.09229 107.998 2.08449 108 2.0713 108C2.05773 108 2.05 107.998 2.04485 107.995C2.03842 107.993 2.03209 107.988 2.02688 107.983C2.02173 107.978 2.01996 107.974 2.01968 107.974L2.01949 107.973C2.01946 107.973 2.01906 107.971 2.01914 107.966Z" stroke="#5956E9" stroke-width="4"/>
<mask id="path-4-inside-3_64_19" fill="white">
<path d="M110 217.929C110 219.073 109.072 220.002 107.928 219.981C81.6602 219.486 56.4091 209.603 36.7704 192.082C17.1316 174.561 4.44299 150.596 0.967127 124.555C0.815791 123.421 1.63372 122.393 2.77026 122.263C3.90678 122.133 4.93145 122.95 5.08363 124.084C8.44335 149.115 20.6485 172.147 39.5282 188.991C58.4079 205.834 82.6776 215.343 107.928 215.837C109.072 215.86 110 216.785 110 217.929Z"/>
</mask>
<path d="M110 217.929C110 219.073 109.072 220.002 107.928 219.981C81.6602 219.486 56.4091 209.603 36.7704 192.082C17.1316 174.561 4.44299 150.596 0.967127 124.555C0.815791 123.421 1.63372 122.393 2.77026 122.263C3.90678 122.133 4.93145 122.95 5.08363 124.084C8.44335 149.115 20.6485 172.147 39.5282 188.991C58.4079 205.834 82.6776 215.343 107.928 215.837C109.072 215.86 110 216.785 110 217.929Z" stroke="#5956E9" stroke-width="8" mask="url(#path-4-inside-3_64_19)"/>
</svg>
